<?xml version="1.0" encoding="UTF-8" standalone="no"?>
<!-- Created with Inkscape (http://www.inkscape.org/) -->

<svg
   width="400mm"
   height="70mm"
   viewBox="0 0 400 70"
   version="1.1"
   id="svg1"
   inkscape:version="1.3.2 (091e20e, 2023-11-25, custom)"
   sodipodi:docname="jssaeyahn.svg"
   xml:space="preserve"
   xmlns:inkscape="http://www.inkscape.org/namespaces/inkscape"
   xmlns:sodipodi="http://sodipodi.sourceforge.net/DTD/sodipodi-0.dtd"
   xmlns:xlink="http://www.w3.org/1999/xlink"
   xmlns="http://www.w3.org/2000/svg"
   xmlns:svg="http://www.w3.org/2000/svg"><sodipodi:namedview
     id="namedview1"
     pagecolor="#505050"
     bordercolor="#eeeeee"
     borderopacity="1"
     inkscape:showpageshadow="0"
     inkscape:pageopacity="0"
     inkscape:pagecheckerboard="0"
     inkscape:deskcolor="#505050"
     inkscape:document-units="mm"
     inkscape:zoom="1.0078851"
     inkscape:cx="705.93364"
     inkscape:cy="83.342833"
     inkscape:window-width="1920"
     inkscape:window-height="1009"
     inkscape:window-x="-4"
     inkscape:window-y="-4"
     inkscape:window-maximized="1"
     inkscape:current-layer="layer1" /><defs
     id="defs1"><linearGradient
       id="linearGradient26"
       inkscape:collect="always"><stop
         style="stop-color:#4f5400;stop-opacity:1;"
         offset="0"
         id="stop26" /><stop
         style="stop-color:#000000;stop-opacity:1;"
         offset="1"
         id="stop27" /></linearGradient><meshgradient
       inkscape:collect="always"
       id="meshgradient1"
       gradientUnits="userSpaceOnUse"
       x="117.32666"
       y="11.339744"><meshrow
         id="meshrow1"><meshpatch
           id="meshpatch1"><stop
             path="c 55.1156,0  110.231,0  165.347,0"
             style="stop-color:#ffffff;stop-opacity:1"
             id="stop1" /><stop
             path="c 0,17.8868  0,35.7735  0,53.6603"
             style="stop-color:#000000;stop-opacity:1"
             id="stop2" /><stop
             path="c -55.1156,0  -110.231,0  -165.347,0"
             style="stop-color:#ffffff;stop-opacity:1"
             id="stop3" /><stop
             path="c 0,-17.8868  0,-35.7735  0,-53.6603"
             style="stop-color:#000000;stop-opacity:1"
             id="stop4" /></meshpatch></meshrow></meshgradient><radialGradient
       inkscape:collect="always"
       xlink:href="#linearGradient26"
       id="radialGradient27"
       cx="200.7425"
       cy="35"
       fx="200.7425"
       fy="35"
       r="200"
       gradientTransform="matrix(1,0,0,0.175,0,28.875)"
       gradientUnits="userSpaceOnUse" /></defs><g
     inkscape:label="Layer 1"
     inkscape:groupmode="layer"
     id="layer1"
     style="display:inline"><rect
       style="fill:url(#radialGradient27);stroke-width:0.264583"
       id="rect1"
       width="400"
       height="70"
       x="0.74250001"
       y="0" /><g
       id="g15"
       transform="matrix(0.09908459,0,0,0.09908459,121.2407,2.3701909)"><g
         fill="#83cd29"
         id="g2"><path
           d="m 471.05,51.611 c -1.244,0 -2.454,0.257 -3.525,0.863 l -33.888,19.57 c -2.193,1.264 -3.526,3.65 -3.526,6.189 v 39.069 c 0,2.537 1.333,4.92 3.526,6.187 l 8.85,5.109 c 4.3,2.119 5.885,2.086 7.842,2.086 6.366,0 10.001,-3.863 10.001,-10.576 V 81.542 c 0,-0.545 -0.472,-0.935 -1.007,-0.935 h -4.245 c -0.544,0 -1.007,0.39 -1.007,0.935 v 38.566 c 0,2.975 -3.1,5.968 -8.13,3.453 l -9.21,-5.396 c -0.326,-0.177 -0.576,-0.49 -0.576,-0.863 v -39.07 c 0,-0.37 0.247,-0.747 0.576,-0.935 L 470.547,57.8 a 0.998,0.998 0 0 1 1.007,0 l 33.817,19.498 c 0.322,0.194 0.576,0.553 0.576,0.936 v 39.069 c 0,0.373 -0.188,0.755 -0.504,0.935 l -33.889,19.498 c -0.29,0.173 -0.69,0.173 -1.007,0 l -8.706,-5.18 a 0.905,0.905 0 0 0 -0.863,0 c -2.403,1.362 -2.855,1.52 -5.109,2.302 -0.555,0.194 -1.398,0.495 0.288,1.44 l 11.368,6.69 a 6.995,6.995 0 0 0 3.526,0.936 6.949,6.949 0 0 0 3.525,-0.935 l 33.889,-19.499 c 2.193,-1.275 3.525,-3.65 3.525,-6.187 v -39.07 c 0,-2.538 -1.332,-4.92 -3.525,-6.187 l -33.889,-19.57 c -1.062,-0.607 -2.28,-0.864 -3.525,-0.864 z"
           id="path1" /><path
           d="m 480.116,79.528 c -9.65,0 -15.397,4.107 -15.397,10.937 0,7.408 5.704,9.444 14.966,10.36 11.08,1.085 11.943,2.712 11.943,4.893 0,3.783 -3.016,5.396 -10.144,5.396 -8.957,0 -10.925,-2.236 -11.584,-6.691 -0.078,-0.478 -0.447,-0.864 -0.936,-0.864 h -4.389 c -0.54,0 -1.007,0.466 -1.007,1.008 0,5.703 3.102,12.447 17.916,12.447 10.723,0 16.908,-4.209 16.908,-11.584 0,-7.31 -4.996,-9.273 -15.398,-10.648 -10.51,-1.391 -11.512,-2.072 -11.512,-4.533 0,-2.032 0.85,-4.75 8.634,-4.75 6.954,0 9.524,1.5 10.577,6.189 0.092,0.44 0.48,0.791 0.935,0.791 h 4.39 c 0.27,0 0.532,-0.166 0.719,-0.36 0.184,-0.207 0.314,-0.44 0.288,-0.719 -0.68,-8.074 -6.064,-11.872 -16.909,-11.872 z"
           id="path2" /></g><path
         d="m 271.821,0.383 a 2.181,2.181 0 0 0 -1.08,0.287 2.18,2.18 0 0 0 -1.079,1.871 v 55.042 c 0,0.54 -0.251,1.024 -0.719,1.295 a 1.501,1.501 0 0 1 -1.511,0 l -8.994,-5.18 a 4.31,4.31 0 0 0 -4.317,0 l -35.903,20.721 c -1.342,0.775 -2.158,2.264 -2.158,3.814 v 41.443 c 0,1.548 0.817,2.966 2.158,3.741 l 35.903,20.722 a 4.3,4.3 0 0 0 4.317,0 l 35.903,-20.722 a 4.308,4.308 0 0 0 2.159,-3.741 V 16.356 a 4.386,4.386 0 0 0 -2.23,-3.814 L 272.9,0.598 c -0.335,-0.187 -0.707,-0.22 -1.079,-0.215 z M 40.861,52.115 c -0.684,0.027 -1.328,0.147 -1.942,0.503 L 3.015,73.34 A 4.3,4.3 0 0 0 0.857,77.081 L 0.929,132.7 c 0,0.773 0.399,1.492 1.079,1.87 a 2.096,2.096 0 0 0 2.159,0 l 21.297,-12.231 c 1.349,-0.802 2.23,-2.196 2.23,-3.742 V 92.623 c 0,-1.55 0.815,-2.972 2.159,-3.742 l 9.065,-5.252 a 4.251,4.251 0 0 1 2.159,-0.576 c 0.74,0 1.5,0.185 2.158,0.576 l 9.066,5.252 a 4.296,4.296 0 0 1 2.159,3.742 v 25.973 c 0,1.546 0.89,2.95 2.23,3.742 l 21.297,12.232 a 2.096,2.096 0 0 0 2.159,0 2.164,2.164 0 0 0 1.08,-1.871 l 0.07,-55.618 A 4.28,4.28 0 0 0 79.138,73.34 L 43.235,52.618 c -0.607,-0.356 -1.253,-0.475 -1.942,-0.503 z m 322.624,0.503 c -0.75,0 -1.485,0.19 -2.158,0.576 l -35.903,20.722 a 4.306,4.306 0 0 0 -2.159,3.741 V 119.1 c 0,1.559 0.878,2.971 2.23,3.742 l 35.616,20.29 c 1.315,0.75 2.921,0.807 4.245,0.07 l 21.585,-12.015 c 0.685,-0.38 1.148,-1.09 1.151,-1.87 a 2.126,2.126 0 0 0 -1.079,-1.871 l -36.119,-20.722 c -0.676,-0.386 -1.151,-1.167 -1.151,-1.943 v -12.95 c 0,-0.775 0.48,-1.485 1.151,-1.871 l 11.224,-6.476 a 2.155,2.155 0 0 1 2.159,0 L 375.5,89.96 a 2.152,2.152 0 0 1 1.08,1.87 v 10.217 a 2.15,2.15 0 0 0 1.079,1.87 c 0.673,0.389 1.487,0.39 2.158,0 L 401.331,91.4 a 4.325,4.325 0 0 0 2.159,-3.742 v -10 c 0,-1.545 -0.82,-2.966 -2.159,-3.742 L 365.644,53.194 a 4.279,4.279 0 0 0 -2.159,-0.575 z m -107.35,30.939 c 0.188,0 0.408,0.046 0.576,0.143 l 12.304,7.123 c 0.334,0.193 0.576,0.55 0.576,0.935 v 14.246 c 0,0.387 -0.24,0.743 -0.576,0.936 l -12.304,7.123 a 1.088,1.088 0 0 1 -1.079,0 l -12.303,-7.123 c -0.335,-0.194 -0.576,-0.549 -0.576,-0.936 V 91.758 c 0,-0.386 0.242,-0.74 0.576,-0.935 l 12.303,-7.122 a 0.948,0.948 0 0 1 0.504,-0.143 v -0.001 z"
         fill="#404137"
         id="path3" /><path
         d="m 148.714,52.402 c -0.748,0 -1.488,0.19 -2.158,0.576 l -35.903,20.65 c -1.343,0.773 -2.159,2.265 -2.159,3.813 v 41.443 c 0,1.55 0.817,2.966 2.159,3.742 l 35.903,20.721 a 4.297,4.297 0 0 0 4.317,0 l 35.903,-20.721 a 4.308,4.308 0 0 0 2.158,-3.742 V 77.441 c 0,-1.55 -0.816,-3.04 -2.158,-3.813 l -35.903,-20.65 a 4.297,4.297 0 0 0 -2.159,-0.576 z m 214.699,36.983 c -0.143,0 -0.302,0 -0.431,0.072 l -6.907,4.029 a 0.84,0.84 0 0 0 -0.432,0.72 v 7.914 c 0,0.298 0.172,0.571 0.432,0.72 l 6.907,3.957 c 0.259,0.15 0.535,0.15 0.791,0 l 6.907,-3.958 a 0.846,0.846 0 0 0 0.432,-0.719 v -7.915 a 0.846,0.846 0 0 0 -0.432,-0.719 l -6.907,-4.03 c -0.128,-0.075 -0.216,-0.07 -0.36,-0.07 z"
         fill="#83cd29"
         id="path4" /></g></g><g
     id="layer2"
     inkscape:label="Font"
     style="fill-opacity:1;fill:url(#meshgradient1);fill-rule:nonzero"
     inkscape:groupmode="layer"><rect
       style="fill:#f9f9f9;fill-opacity:1;fill-rule:nonzero;stroke-width:0.218223"
       id="rect3"
       width="20"
       height="5"
       x="141.64832"
       y="50" /><rect
       style="fill:#f9f9f9;fill-opacity:1;fill-rule:nonzero;stroke-width:0.267269"
       id="rect3-2"
       width="5"
       height="30"
       x="141.64832"
       y="35" /><rect
       style="fill:#f9f9f9;fill-opacity:1;fill-rule:nonzero;stroke-width:0.267269"
       id="rect3-2-4"
       width="5"
       height="30"
       x="156.64832"
       y="35" /><rect
       style="fill:#f9f9f9;fill-opacity:1;fill-rule:nonzero;stroke-width:0.218224"
       id="rect3-24"
       width="20"
       height="5"
       x="141.64832"
       y="35" /><rect
       style="fill:#f9f9f9;fill-opacity:1;fill-rule:nonzero;stroke-width:0.218223"
       id="rect3-0"
       width="20"
       height="5"
       x="164.91165"
       y="50" /><rect
       style="fill:#f9f9f9;fill-opacity:1;fill-rule:nonzero;stroke-width:0.218223"
       id="rect3-0-5"
       width="20"
       height="5"
       x="164.91165"
       y="60" /><rect
       style="fill:#f9f9f9;fill-opacity:1;fill-rule:nonzero;stroke-width:0.267269"
       id="rect3-2-3"
       width="5"
       height="30"
       x="164.91165"
       y="35" /><rect
       style="fill:#f9f9f9;fill-opacity:1;fill-rule:nonzero;stroke-width:0.218224"
       id="rect3-24-5"
       width="20"
       height="5"
       x="164.91165"
       y="35" /><rect
       style="fill:#f9f9f9;fill-opacity:1;fill-rule:nonzero;stroke-width:0.218223"
       id="rect3-0-5-3"
       width="19.999992"
       height="5"
       x="118.38499"
       y="60" /><rect
       style="fill:#f9f9f9;fill-opacity:1;fill-rule:nonzero;stroke-width:0.267269"
       id="rect3-2-3-3"
       width="5"
       height="30"
       x="133.38498"
       y="35" /><rect
       style="fill:#f9f9f9;fill-opacity:1;fill-rule:nonzero;stroke-width:0.218225"
       id="rect3-2-3-3-5"
       width="5"
       height="20"
       x="118.38499"
       y="20" /><rect
       style="fill:#f9f9f9;fill-opacity:1;fill-rule:nonzero;stroke-width:0.218224"
       id="rect3-24-5-5"
       width="20"
       height="5"
       x="118.38499"
       y="35" /><rect
       style="fill:#f9f9f9;fill-opacity:1;fill-rule:nonzero;stroke-width:0.405877"
       id="rect3-24-5-5-6"
       width="69.185577"
       height="5"
       x="118.38499"
       y="20" /><rect
       style="fill:#f9f9f9;fill-opacity:1;fill-rule:nonzero;stroke-width:0.410947"
       id="rect3-24-5-5-6-3"
       width="70.924728"
       height="5"
       x="212.80693"
       y="20" /><rect
       style="fill:#f9f9f9;fill-opacity:1;fill-rule:nonzero;stroke-width:0.218224"
       id="rect3-2-3-3-3"
       width="5"
       height="20"
       x="198.55832"
       y="45" /><rect
       style="fill:#f9f9f9;fill-opacity:1;fill-rule:nonzero;stroke-width:0.218223"
       id="rect3-6"
       width="20"
       height="5"
       x="217.20499"
       y="50" /><rect
       style="fill:#f9f9f9;fill-opacity:1;fill-rule:nonzero;stroke-width:0.267269"
       id="rect3-2-2"
       width="5"
       height="30"
       x="217.20499"
       y="35" /><rect
       style="fill:#f9f9f9;fill-opacity:1;fill-rule:nonzero;stroke-width:0.345043"
       id="rect3-2-2-5"
       width="5"
       height="50"
       x="148.78668"
       y="90.750313"
       transform="rotate(-30)" /><rect
       style="fill:#f9f9f9;fill-opacity:1;fill-rule:nonzero;stroke-width:0.267269"
       id="rect3-2-4-9"
       width="5"
       height="30"
       x="232.20499"
       y="35" /><rect
       style="fill:#f9f9f9;fill-opacity:1;fill-rule:nonzero;stroke-width:0.218224"
       id="rect3-24-9"
       width="20"
       height="5"
       x="217.20499"
       y="35" /><rect
       style="fill:#f9f9f9;fill-opacity:1;fill-rule:nonzero;stroke-width:0.218223"
       id="rect3-0-4"
       width="20"
       height="5"
       x="240.46832"
       y="50" /><rect
       style="fill:#f9f9f9;fill-opacity:1;fill-rule:nonzero;stroke-width:0.267269"
       id="rect3-2-3-8"
       width="5"
       height="30"
       x="240.46832"
       y="35" /><rect
       style="fill:#f9f9f9;fill-opacity:1;fill-rule:nonzero;stroke-width:0.267269"
       id="rect3-2-3-8-4"
       width="5"
       height="30"
       x="255.46832"
       y="35" /><rect
       style="fill:#f9f9f9;fill-opacity:1;fill-rule:nonzero;stroke-width:0.267269"
       id="rect3-2-2-2"
       width="5"
       height="30"
       x="263.73169"
       y="35" /><rect
       style="fill:#f9f9f9;fill-opacity:1;fill-rule:nonzero;stroke-width:0.267269"
       id="rect3-2-2-2-9"
       width="5"
       height="30"
       x="212.41132"
       y="161.98033"
       transform="rotate(-29.125424)" /><rect
       style="fill:#f9f9f9;fill-opacity:1;fill-rule:nonzero;stroke-width:0.322758"
       id="rect3-2-4-9-4"
       width="5"
       height="43.750004"
       x="278.73169"
       y="21.249996" /><rect
       style="fill:#f9f9f9;fill-opacity:1;fill-rule:nonzero;stroke-width:0.345043"
       id="rect3-2-2-5-2"
       width="5"
       height="50"
       x="-199.12161"
       y="-111.55801"
       transform="matrix(-0.8660254,-0.5,-0.5,0.8660254,0,0)" /></g><script
     id="mesh_polyfill"
     type="text/javascript">
!function(){const t=&quot;http://www.w3.org/2000/svg&quot;,e=&quot;http://www.w3.org/1999/xlink&quot;,s=&quot;http://www.w3.org/1999/xhtml&quot;,r=2;if(document.createElementNS(t,&quot;meshgradient&quot;).x)return;const n=(t,e,s,r)=&gt;{let n=new x(.5*(e.x+s.x),.5*(e.y+s.y)),o=new x(.5*(t.x+e.x),.5*(t.y+e.y)),i=new x(.5*(s.x+r.x),.5*(s.y+r.y)),a=new x(.5*(n.x+o.x),.5*(n.y+o.y)),h=new x(.5*(n.x+i.x),.5*(n.y+i.y)),l=new x(.5*(a.x+h.x),.5*(a.y+h.y));return[[t,o,a,l],[l,h,i,r]]},o=t=&gt;{let e=t[0].distSquared(t[1]),s=t[2].distSquared(t[3]),r=.25*t[0].distSquared(t[2]),n=.25*t[1].distSquared(t[3]),o=e&gt;s?e:s,i=r&gt;n?r:n;return 18*(o&gt;i?o:i)},i=(t,e)=&gt;Math.sqrt(t.distSquared(e)),a=(t,e)=&gt;t.scale(2/3).add(e.scale(1/3)),h=t=&gt;{let e,s,r,n,o,i,a,h=new g;return t.match(/(\w+\(\s*[^)]+\))+/g).forEach(t=&gt;{let l=t.match(/[\w.-]+/g),d=l.shift();switch(d){case&quot;translate&quot;:2===l.length?e=new g(1,0,0,1,l[0],l[1]):(console.error(&quot;mesh.js: translate does not have 2 arguments!&quot;),e=new g(1,0,0,1,0,0)),h=h.append(e);break;case&quot;scale&quot;:1===l.length?s=new g(l[0],0,0,l[0],0,0):2===l.length?s=new g(l[0],0,0,l[1],0,0):(console.error(&quot;mesh.js: scale does not have 1 or 2 arguments!&quot;),s=new g(1,0,0,1,0,0)),h=h.append(s);break;case&quot;rotate&quot;:if(3===l.length&amp;&amp;(e=new g(1,0,0,1,l[1],l[2]),h=h.append(e)),l[0]){r=l[0]*Math.PI/180;let t=Math.cos(r),e=Math.sin(r);Math.abs(t)&lt;1e-16&amp;&amp;(t=0),Math.abs(e)&lt;1e-16&amp;&amp;(e=0),a=new g(t,e,-e,t,0,0),h=h.append(a)}else console.error(&quot;math.js: No argument to rotate transform!&quot;);3===l.length&amp;&amp;(e=new g(1,0,0,1,-l[1],-l[2]),h=h.append(e));break;case&quot;skewX&quot;:l[0]?(r=l[0]*Math.PI/180,n=Math.tan(r),o=new g(1,0,n,1,0,0),h=h.append(o)):console.error(&quot;math.js: No argument to skewX transform!&quot;);break;case&quot;skewY&quot;:l[0]?(r=l[0]*Math.PI/180,n=Math.tan(r),i=new g(1,n,0,1,0,0),h=h.append(i)):console.error(&quot;math.js: No argument to skewY transform!&quot;);break;case&quot;matrix&quot;:6===l.length?h=h.append(new g(...l)):console.error(&quot;math.js: Incorrect number of arguments for matrix!&quot;);break;default:console.error(&quot;mesh.js: Unhandled transform type: &quot;+d)}}),h},l=t=&gt;{let e=[],s=t.split(/[ ,]+/);for(let t=0,r=s.length-1;t&lt;r;t+=2)e.push(new x(parseFloat(s[t]),parseFloat(s[t+1])));return e},d=(t,e)=&gt;{for(let s in e)t.setAttribute(s,e[s])},c=(t,e,s,r,n)=&gt;{let o,i,a=[0,0,0,0];for(let h=0;h&lt;3;++h)e[h]&lt;t[h]&amp;&amp;e[h]&lt;s[h]||t[h]&lt;e[h]&amp;&amp;s[h]&lt;e[h]?a[h]=0:(a[h]=.5*((e[h]-t[h])/r+(s[h]-e[h])/n),o=Math.abs(3*(e[h]-t[h])/r),i=Math.abs(3*(s[h]-e[h])/n),a[h]&gt;o?a[h]=o:a[h]&gt;i&amp;&amp;(a[h]=i));return a},u=[[1,0,0,0,0,0,0,0,0,0,0,0,0,0,0,0],[0,0,0,0,1,0,0,0,0,0,0,0,0,0,0,0],[-3,3,0,0,-2,-1,0,0,0,0,0,0,0,0,0,0],[2,-2,0,0,1,1,0,0,0,0,0,0,0,0,0,0],[0,0,0,0,0,0,0,0,1,0,0,0,0,0,0,0],[0,0,0,0,0,0,0,0,0,0,0,0,1,0,0,0],[0,0,0,0,0,0,0,0,-3,3,0,0,-2,-1,0,0],[0,0,0,0,0,0,0,0,2,-2,0,0,1,1,0,0],[-3,0,3,0,0,0,0,0,-2,0,-1,0,0,0,0,0],[0,0,0,0,-3,0,3,0,0,0,0,0,-2,0,-1,0],[9,-9,-9,9,6,3,-6,-3,6,-6,3,-3,4,2,2,1],[-6,6,6,-6,-3,-3,3,3,-4,4,-2,2,-2,-2,-1,-1],[2,0,-2,0,0,0,0,0,1,0,1,0,0,0,0,0],[0,0,0,0,2,0,-2,0,0,0,0,0,1,0,1,0],[-6,6,6,-6,-4,-2,4,2,-3,3,-3,3,-2,-1,-2,-1],[4,-4,-4,4,2,2,-2,-2,2,-2,2,-2,1,1,1,1]],f=t=&gt;{let e=[];for(let s=0;s&lt;16;++s){e[s]=0;for(let r=0;r&lt;16;++r)e[s]+=u[s][r]*t[r]}return e},p=(t,e,s)=&gt;{const r=e*e,n=s*s,o=e*e*e,i=s*s*s;return t[0]+t[1]*e+t[2]*r+t[3]*o+t[4]*s+t[5]*s*e+t[6]*s*r+t[7]*s*o+t[8]*n+t[9]*n*e+t[10]*n*r+t[11]*n*o+t[12]*i+t[13]*i*e+t[14]*i*r+t[15]*i*o},y=t=&gt;{let e=[],s=[],r=[];for(let s=0;s&lt;4;++s)e[s]=[],e[s][0]=n(t[0][s],t[1][s],t[2][s],t[3][s]),e[s][1]=[],e[s][1].push(...n(...e[s][0][0])),e[s][1].push(...n(...e[s][0][1])),e[s][2]=[],e[s][2].push(...n(...e[s][1][0])),e[s][2].push(...n(...e[s][1][1])),e[s][2].push(...n(...e[s][1][2])),e[s][2].push(...n(...e[s][1][3]));for(let t=0;t&lt;8;++t){s[t]=[];for(let r=0;r&lt;4;++r)s[t][r]=[],s[t][r][0]=n(e[0][2][t][r],e[1][2][t][r],e[2][2][t][r],e[3][2][t][r]),s[t][r][1]=[],s[t][r][1].push(...n(...s[t][r][0][0])),s[t][r][1].push(...n(...s[t][r][0][1])),s[t][r][2]=[],s[t][r][2].push(...n(...s[t][r][1][0])),s[t][r][2].push(...n(...s[t][r][1][1])),s[t][r][2].push(...n(...s[t][r][1][2])),s[t][r][2].push(...n(...s[t][r][1][3]))}for(let t=0;t&lt;8;++t){r[t]=[];for(let e=0;e&lt;8;++e)r[t][e]=[],r[t][e][0]=s[t][0][2][e],r[t][e][1]=s[t][1][2][e],r[t][e][2]=s[t][2][2][e],r[t][e][3]=s[t][3][2][e]}return r};class x{constructor(t,e){this.x=t||0,this.y=e||0}toString(){return`(x=${this.x}, y=${this.y})`}clone(){return new x(this.x,this.y)}add(t){return new x(this.x+t.x,this.y+t.y)}scale(t){return void 0===t.x?new x(this.x*t,this.y*t):new x(this.x*t.x,this.y*t.y)}distSquared(t){let e=this.x-t.x,s=this.y-t.y;return e*e+s*s}transform(t){let e=this.x*t.a+this.y*t.c+t.e,s=this.x*t.b+this.y*t.d+t.f;return new x(e,s)}}class g{constructor(t,e,s,r,n,o){void 0===t?(this.a=1,this.b=0,this.c=0,this.d=1,this.e=0,this.f=0):(this.a=t,this.b=e,this.c=s,this.d=r,this.e=n,this.f=o)}toString(){return`affine: ${this.a} ${this.c} ${this.e} \n       ${this.b} ${this.d} ${this.f}`}append(t){t instanceof g||console.error(&quot;mesh.js: argument to Affine.append is not affine!&quot;);let e=this.a*t.a+this.c*t.b,s=this.b*t.a+this.d*t.b,r=this.a*t.c+this.c*t.d,n=this.b*t.c+this.d*t.d,o=this.a*t.e+this.c*t.f+this.e,i=this.b*t.e+this.d*t.f+this.f;return new g(e,s,r,n,o,i)}}class w{constructor(t,e){this.nodes=t,this.colors=e}paintCurve(t,e){if(o(this.nodes)&gt;r){const s=n(...this.nodes);let r=[[],[]],o=[[],[]];for(let t=0;t&lt;4;++t)r[0][t]=this.colors[0][t],r[1][t]=(this.colors[0][t]+this.colors[1][t])/2,o[0][t]=r[1][t],o[1][t]=this.colors[1][t];let i=new w(s[0],r),a=new w(s[1],o);i.paintCurve(t,e),a.paintCurve(t,e)}else{let s=Math.round(this.nodes[0].x);if(s&gt;=0&amp;&amp;s&lt;e){let r=4*(~~this.nodes[0].y*e+s);t[r]=Math.round(this.colors[0][0]),t[r+1]=Math.round(this.colors[0][1]),t[r+2]=Math.round(this.colors[0][2]),t[r+3]=Math.round(this.colors[0][3])}}}}class m{constructor(t,e){this.nodes=t,this.colors=e}split(){let t=[[],[],[],[]],e=[[],[],[],[]],s=[[[],[]],[[],[]]],r=[[[],[]],[[],[]]];for(let s=0;s&lt;4;++s){const r=n(this.nodes[0][s],this.nodes[1][s],this.nodes[2][s],this.nodes[3][s]);t[0][s]=r[0][0],t[1][s]=r[0][1],t[2][s]=r[0][2],t[3][s]=r[0][3],e[0][s]=r[1][0],e[1][s]=r[1][1],e[2][s]=r[1][2],e[3][s]=r[1][3]}for(let t=0;t&lt;4;++t)s[0][0][t]=this.colors[0][0][t],s[0][1][t]=this.colors[0][1][t],s[1][0][t]=(this.colors[0][0][t]+this.colors[1][0][t])/2,s[1][1][t]=(this.colors[0][1][t]+this.colors[1][1][t])/2,r[0][0][t]=s[1][0][t],r[0][1][t]=s[1][1][t],r[1][0][t]=this.colors[1][0][t],r[1][1][t]=this.colors[1][1][t];return[new m(t,s),new m(e,r)]}paint(t,e){let s,n=!1;for(let t=0;t&lt;4;++t)if((s=o([this.nodes[0][t],this.nodes[1][t],this.nodes[2][t],this.nodes[3][t]]))&gt;r){n=!0;break}if(n){let s=this.split();s[0].paint(t,e),s[1].paint(t,e)}else{new w([...this.nodes[0]],[...this.colors[0]]).paintCurve(t,e)}}}class b{constructor(t){this.readMesh(t),this.type=t.getAttribute(&quot;type&quot;)||&quot;bilinear&quot;}readMesh(t){let e=[[]],s=[[]],r=Number(t.getAttribute(&quot;x&quot;)),n=Number(t.getAttribute(&quot;y&quot;));e[0][0]=new x(r,n);let o=t.children;for(let t=0,r=o.length;t&lt;r;++t){e[3*t+1]=[],e[3*t+2]=[],e[3*t+3]=[],s[t+1]=[];let r=o[t].children;for(let n=0,o=r.length;n&lt;o;++n){let o=r[n].children;for(let r=0,i=o.length;r&lt;i;++r){let i=r;0!==t&amp;&amp;++i;let h,d=o[r].getAttribute(&quot;path&quot;),c=&quot;l&quot;;null!=d&amp;&amp;(c=(h=d.match(/\s*([lLcC])\s*(.*)/))[1]);let u=l(h[2]);switch(c){case&quot;l&quot;:0===i?(e[3*t][3*n+3]=u[0].add(e[3*t][3*n]),e[3*t][3*n+1]=a(e[3*t][3*n],e[3*t][3*n+3]),e[3*t][3*n+2]=a(e[3*t][3*n+3],e[3*t][3*n])):1===i?(e[3*t+3][3*n+3]=u[0].add(e[3*t][3*n+3]),e[3*t+1][3*n+3]=a(e[3*t][3*n+3],e[3*t+3][3*n+3]),e[3*t+2][3*n+3]=a(e[3*t+3][3*n+3],e[3*t][3*n+3])):2===i?(0===n&amp;&amp;(e[3*t+3][3*n+0]=u[0].add(e[3*t+3][3*n+3])),e[3*t+3][3*n+1]=a(e[3*t+3][3*n],e[3*t+3][3*n+3]),e[3*t+3][3*n+2]=a(e[3*t+3][3*n+3],e[3*t+3][3*n])):(e[3*t+1][3*n]=a(e[3*t][3*n],e[3*t+3][3*n]),e[3*t+2][3*n]=a(e[3*t+3][3*n],e[3*t][3*n]));break;case&quot;L&quot;:0===i?(e[3*t][3*n+3]=u[0],e[3*t][3*n+1]=a(e[3*t][3*n],e[3*t][3*n+3]),e[3*t][3*n+2]=a(e[3*t][3*n+3],e[3*t][3*n])):1===i?(e[3*t+3][3*n+3]=u[0],e[3*t+1][3*n+3]=a(e[3*t][3*n+3],e[3*t+3][3*n+3]),e[3*t+2][3*n+3]=a(e[3*t+3][3*n+3],e[3*t][3*n+3])):2===i?(0===n&amp;&amp;(e[3*t+3][3*n+0]=u[0]),e[3*t+3][3*n+1]=a(e[3*t+3][3*n],e[3*t+3][3*n+3]),e[3*t+3][3*n+2]=a(e[3*t+3][3*n+3],e[3*t+3][3*n])):(e[3*t+1][3*n]=a(e[3*t][3*n],e[3*t+3][3*n]),e[3*t+2][3*n]=a(e[3*t+3][3*n],e[3*t][3*n]));break;case&quot;c&quot;:0===i?(e[3*t][3*n+1]=u[0].add(e[3*t][3*n]),e[3*t][3*n+2]=u[1].add(e[3*t][3*n]),e[3*t][3*n+3]=u[2].add(e[3*t][3*n])):1===i?(e[3*t+1][3*n+3]=u[0].add(e[3*t][3*n+3]),e[3*t+2][3*n+3]=u[1].add(e[3*t][3*n+3]),e[3*t+3][3*n+3]=u[2].add(e[3*t][3*n+3])):2===i?(e[3*t+3][3*n+2]=u[0].add(e[3*t+3][3*n+3]),e[3*t+3][3*n+1]=u[1].add(e[3*t+3][3*n+3]),0===n&amp;&amp;(e[3*t+3][3*n+0]=u[2].add(e[3*t+3][3*n+3]))):(e[3*t+2][3*n]=u[0].add(e[3*t+3][3*n]),e[3*t+1][3*n]=u[1].add(e[3*t+3][3*n]));break;case&quot;C&quot;:0===i?(e[3*t][3*n+1]=u[0],e[3*t][3*n+2]=u[1],e[3*t][3*n+3]=u[2]):1===i?(e[3*t+1][3*n+3]=u[0],e[3*t+2][3*n+3]=u[1],e[3*t+3][3*n+3]=u[2]):2===i?(e[3*t+3][3*n+2]=u[0],e[3*t+3][3*n+1]=u[1],0===n&amp;&amp;(e[3*t+3][3*n+0]=u[2])):(e[3*t+2][3*n]=u[0],e[3*t+1][3*n]=u[1]);break;default:console.error(&quot;mesh.js: &quot;+c+&quot; invalid path type.&quot;)}if(0===t&amp;&amp;0===n||r&gt;0){let e=window.getComputedStyle(o[r]).stopColor.match(/^rgb\s*\(\s*(\d+)\s*,\s*(\d+)\s*,\s*(\d+)\s*\)$/i),a=window.getComputedStyle(o[r]).stopOpacity,h=255;a&amp;&amp;(h=Math.floor(255*a)),e&amp;&amp;(0===i?(s[t][n]=[],s[t][n][0]=Math.floor(e[1]),s[t][n][1]=Math.floor(e[2]),s[t][n][2]=Math.floor(e[3]),s[t][n][3]=h):1===i?(s[t][n+1]=[],s[t][n+1][0]=Math.floor(e[1]),s[t][n+1][1]=Math.floor(e[2]),s[t][n+1][2]=Math.floor(e[3]),s[t][n+1][3]=h):2===i?(s[t+1][n+1]=[],s[t+1][n+1][0]=Math.floor(e[1]),s[t+1][n+1][1]=Math.floor(e[2]),s[t+1][n+1][2]=Math.floor(e[3]),s[t+1][n+1][3]=h):3===i&amp;&amp;(s[t+1][n]=[],s[t+1][n][0]=Math.floor(e[1]),s[t+1][n][1]=Math.floor(e[2]),s[t+1][n][2]=Math.floor(e[3]),s[t+1][n][3]=h))}}e[3*t+1][3*n+1]=new x,e[3*t+1][3*n+2]=new x,e[3*t+2][3*n+1]=new x,e[3*t+2][3*n+2]=new x,e[3*t+1][3*n+1].x=(-4*e[3*t][3*n].x+6*(e[3*t][3*n+1].x+e[3*t+1][3*n].x)+-2*(e[3*t][3*n+3].x+e[3*t+3][3*n].x)+3*(e[3*t+3][3*n+1].x+e[3*t+1][3*n+3].x)+-1*e[3*t+3][3*n+3].x)/9,e[3*t+1][3*n+2].x=(-4*e[3*t][3*n+3].x+6*(e[3*t][3*n+2].x+e[3*t+1][3*n+3].x)+-2*(e[3*t][3*n].x+e[3*t+3][3*n+3].x)+3*(e[3*t+3][3*n+2].x+e[3*t+1][3*n].x)+-1*e[3*t+3][3*n].x)/9,e[3*t+2][3*n+1].x=(-4*e[3*t+3][3*n].x+6*(e[3*t+3][3*n+1].x+e[3*t+2][3*n].x)+-2*(e[3*t+3][3*n+3].x+e[3*t][3*n].x)+3*(e[3*t][3*n+1].x+e[3*t+2][3*n+3].x)+-1*e[3*t][3*n+3].x)/9,e[3*t+2][3*n+2].x=(-4*e[3*t+3][3*n+3].x+6*(e[3*t+3][3*n+2].x+e[3*t+2][3*n+3].x)+-2*(e[3*t+3][3*n].x+e[3*t][3*n+3].x)+3*(e[3*t][3*n+2].x+e[3*t+2][3*n].x)+-1*e[3*t][3*n].x)/9,e[3*t+1][3*n+1].y=(-4*e[3*t][3*n].y+6*(e[3*t][3*n+1].y+e[3*t+1][3*n].y)+-2*(e[3*t][3*n+3].y+e[3*t+3][3*n].y)+3*(e[3*t+3][3*n+1].y+e[3*t+1][3*n+3].y)+-1*e[3*t+3][3*n+3].y)/9,e[3*t+1][3*n+2].y=(-4*e[3*t][3*n+3].y+6*(e[3*t][3*n+2].y+e[3*t+1][3*n+3].y)+-2*(e[3*t][3*n].y+e[3*t+3][3*n+3].y)+3*(e[3*t+3][3*n+2].y+e[3*t+1][3*n].y)+-1*e[3*t+3][3*n].y)/9,e[3*t+2][3*n+1].y=(-4*e[3*t+3][3*n].y+6*(e[3*t+3][3*n+1].y+e[3*t+2][3*n].y)+-2*(e[3*t+3][3*n+3].y+e[3*t][3*n].y)+3*(e[3*t][3*n+1].y+e[3*t+2][3*n+3].y)+-1*e[3*t][3*n+3].y)/9,e[3*t+2][3*n+2].y=(-4*e[3*t+3][3*n+3].y+6*(e[3*t+3][3*n+2].y+e[3*t+2][3*n+3].y)+-2*(e[3*t+3][3*n].y+e[3*t][3*n+3].y)+3*(e[3*t][3*n+2].y+e[3*t+2][3*n].y)+-1*e[3*t][3*n].y)/9}}this.nodes=e,this.colors=s}paintMesh(t,e){let s=(this.nodes.length-1)/3,r=(this.nodes[0].length-1)/3;if(&quot;bilinear&quot;===this.type||s&lt;2||r&lt;2){let n;for(let o=0;o&lt;s;++o)for(let s=0;s&lt;r;++s){let r=[];for(let t=3*o,e=3*o+4;t&lt;e;++t)r.push(this.nodes[t].slice(3*s,3*s+4));let i=[];i.push(this.colors[o].slice(s,s+2)),i.push(this.colors[o+1].slice(s,s+2)),(n=new m(r,i)).paint(t,e)}}else{let n,o,a,h,l,d,u;const x=s,g=r;s++,r++;let w=new Array(s);for(let t=0;t&lt;s;++t){w[t]=new Array(r);for(let e=0;e&lt;r;++e)w[t][e]=[],w[t][e][0]=this.nodes[3*t][3*e],w[t][e][1]=this.colors[t][e]}for(let t=0;t&lt;s;++t)for(let e=0;e&lt;r;++e)0!==t&amp;&amp;t!==x&amp;&amp;(n=i(w[t-1][e][0],w[t][e][0]),o=i(w[t+1][e][0],w[t][e][0]),w[t][e][2]=c(w[t-1][e][1],w[t][e][1],w[t+1][e][1],n,o)),0!==e&amp;&amp;e!==g&amp;&amp;(n=i(w[t][e-1][0],w[t][e][0]),o=i(w[t][e+1][0],w[t][e][0]),w[t][e][3]=c(w[t][e-1][1],w[t][e][1],w[t][e+1][1],n,o));for(let t=0;t&lt;r;++t){w[0][t][2]=[],w[x][t][2]=[];for(let e=0;e&lt;4;++e)n=i(w[1][t][0],w[0][t][0]),o=i(w[x][t][0],w[x-1][t][0]),w[0][t][2][e]=n&gt;0?2*(w[1][t][1][e]-w[0][t][1][e])/n-w[1][t][2][e]:0,w[x][t][2][e]=o&gt;0?2*(w[x][t][1][e]-w[x-1][t][1][e])/o-w[x-1][t][2][e]:0}for(let t=0;t&lt;s;++t){w[t][0][3]=[],w[t][g][3]=[];for(let e=0;e&lt;4;++e)n=i(w[t][1][0],w[t][0][0]),o=i(w[t][g][0],w[t][g-1][0]),w[t][0][3][e]=n&gt;0?2*(w[t][1][1][e]-w[t][0][1][e])/n-w[t][1][3][e]:0,w[t][g][3][e]=o&gt;0?2*(w[t][g][1][e]-w[t][g-1][1][e])/o-w[t][g-1][3][e]:0}for(let s=0;s&lt;x;++s)for(let r=0;r&lt;g;++r){let n=i(w[s][r][0],w[s+1][r][0]),o=i(w[s][r+1][0],w[s+1][r+1][0]),c=i(w[s][r][0],w[s][r+1][0]),x=i(w[s+1][r][0],w[s+1][r+1][0]),g=[[],[],[],[]];for(let t=0;t&lt;4;++t){(d=[])[0]=w[s][r][1][t],d[1]=w[s+1][r][1][t],d[2]=w[s][r+1][1][t],d[3]=w[s+1][r+1][1][t],d[4]=w[s][r][2][t]*n,d[5]=w[s+1][r][2][t]*n,d[6]=w[s][r+1][2][t]*o,d[7]=w[s+1][r+1][2][t]*o,d[8]=w[s][r][3][t]*c,d[9]=w[s+1][r][3][t]*x,d[10]=w[s][r+1][3][t]*c,d[11]=w[s+1][r+1][3][t]*x,d[12]=0,d[13]=0,d[14]=0,d[15]=0,u=f(d);for(let e=0;e&lt;9;++e){g[t][e]=[];for(let s=0;s&lt;9;++s)g[t][e][s]=p(u,e/8,s/8),g[t][e][s]&gt;255?g[t][e][s]=255:g[t][e][s]&lt;0&amp;&amp;(g[t][e][s]=0)}}h=[];for(let t=3*s,e=3*s+4;t&lt;e;++t)h.push(this.nodes[t].slice(3*r,3*r+4));l=y(h);for(let s=0;s&lt;8;++s)for(let r=0;r&lt;8;++r)(a=new m(l[s][r],[[[g[0][s][r],g[1][s][r],g[2][s][r],g[3][s][r]],[g[0][s][r+1],g[1][s][r+1],g[2][s][r+1],g[3][s][r+1]]],[[g[0][s+1][r],g[1][s+1][r],g[2][s+1][r],g[3][s+1][r]],[g[0][s+1][r+1],g[1][s+1][r+1],g[2][s+1][r+1],g[3][s+1][r+1]]]])).paint(t,e)}}}transform(t){if(t instanceof x)for(let e=0,s=this.nodes.length;e&lt;s;++e)for(let s=0,r=this.nodes[0].length;s&lt;r;++s)this.nodes[e][s]=this.nodes[e][s].add(t);else if(t instanceof g)for(let e=0,s=this.nodes.length;e&lt;s;++e)for(let s=0,r=this.nodes[0].length;s&lt;r;++s)this.nodes[e][s]=this.nodes[e][s].transform(t)}scale(t){for(let e=0,s=this.nodes.length;e&lt;s;++e)for(let s=0,r=this.nodes[0].length;s&lt;r;++s)this.nodes[e][s]=this.nodes[e][s].scale(t)}}document.querySelectorAll(&quot;rect,circle,ellipse,path,text&quot;).forEach((r,n)=&gt;{let o=r.getAttribute(&quot;id&quot;);o||(o=&quot;patchjs_shape&quot;+n,r.setAttribute(&quot;id&quot;,o));const i=r.style.fill.match(/^url\(\s*&quot;?\s*#([^\s&quot;]+)&quot;?\s*\)/),a=r.style.stroke.match(/^url\(\s*&quot;?\s*#([^\s&quot;]+)&quot;?\s*\)/);if(i&amp;&amp;i[1]){const a=document.getElementById(i[1]);if(a&amp;&amp;&quot;meshgradient&quot;===a.nodeName){const i=r.getBBox();let l=document.createElementNS(s,&quot;canvas&quot;);d(l,{width:i.width,height:i.height});const c=l.getContext(&quot;2d&quot;);let u=c.createImageData(i.width,i.height);const f=new b(a);&quot;objectBoundingBox&quot;===a.getAttribute(&quot;gradientUnits&quot;)&amp;&amp;f.scale(new x(i.width,i.height));const p=a.getAttribute(&quot;gradientTransform&quot;);null!=p&amp;&amp;f.transform(h(p)),&quot;userSpaceOnUse&quot;===a.getAttribute(&quot;gradientUnits&quot;)&amp;&amp;f.transform(new x(-i.x,-i.y)),f.paintMesh(u.data,l.width),c.putImageData(u,0,0);const y=document.createElementNS(t,&quot;image&quot;);d(y,{width:i.width,height:i.height,x:i.x,y:i.y});let g=l.toDataURL();y.setAttributeNS(e,&quot;xlink:href&quot;,g),r.parentNode.insertBefore(y,r),r.style.fill=&quot;none&quot;;const w=document.createElementNS(t,&quot;use&quot;);w.setAttributeNS(e,&quot;xlink:href&quot;,&quot;#&quot;+o);const m=&quot;patchjs_clip&quot;+n,M=document.createElementNS(t,&quot;clipPath&quot;);M.setAttribute(&quot;id&quot;,m),M.appendChild(w),r.parentElement.insertBefore(M,r),y.setAttribute(&quot;clip-path&quot;,&quot;url(#&quot;+m+&quot;)&quot;),u=null,l=null,g=null}}if(a&amp;&amp;a[1]){const o=document.getElementById(a[1]);if(o&amp;&amp;&quot;meshgradient&quot;===o.nodeName){const i=parseFloat(r.style.strokeWidth.slice(0,-2))*(parseFloat(r.style.strokeMiterlimit)||parseFloat(r.getAttribute(&quot;stroke-miterlimit&quot;))||1),a=r.getBBox(),l=Math.trunc(a.width+i),c=Math.trunc(a.height+i),u=Math.trunc(a.x-i/2),f=Math.trunc(a.y-i/2);let p=document.createElementNS(s,&quot;canvas&quot;);d(p,{width:l,height:c});const y=p.getContext(&quot;2d&quot;);let g=y.createImageData(l,c);const w=new b(o);&quot;objectBoundingBox&quot;===o.getAttribute(&quot;gradientUnits&quot;)&amp;&amp;w.scale(new x(l,c));const m=o.getAttribute(&quot;gradientTransform&quot;);null!=m&amp;&amp;w.transform(h(m)),&quot;userSpaceOnUse&quot;===o.getAttribute(&quot;gradientUnits&quot;)&amp;&amp;w.transform(new x(-u,-f)),w.paintMesh(g.data,p.width),y.putImageData(g,0,0);const M=document.createElementNS(t,&quot;image&quot;);d(M,{width:l,height:c,x:0,y:0});let S=p.toDataURL();M.setAttributeNS(e,&quot;xlink:href&quot;,S);const k=&quot;pattern_clip&quot;+n,A=document.createElementNS(t,&quot;pattern&quot;);d(A,{id:k,patternUnits:&quot;userSpaceOnUse&quot;,width:l,height:c,x:u,y:f}),A.appendChild(M),o.parentNode.appendChild(A),r.style.stroke=&quot;url(#&quot;+k+&quot;)&quot;,g=null,p=null,S=null}}})}();
</script></svg>
